{"title":"The Hungover Games 2014 UNRATED HDRip x264 AC3-iMSTiLLPiSSED","uid":9562549,"size":1322505301,"categoryP":"video","categoryS":"movies","magnet":"?xt=urn:btih:534c1b7b79f35d12f5667a53b659894a10f0223c&amp;dn=The+Hungover+Games+2014+UNRATED+HDRip+x264+AC3-iMSTiLLPiSSED&amp;tr=udp%3A%2F%2Ftracker.openbittorrent.com%3A80&amp;tr=udp%3A%2F%2Fopen.demonii.com%3A1337&amp;tr=udp%3A%2F%2Ftracker.coppersurfer.tk%3A6969&amp;tr=udp%3A%2F%2Fexodus.desync.com%3A6969","seeders":1,"leechers":0,"uploader":".BONE.","files":2,"time":1391457692,"description":" &lt;a href=&quot;http://www.imdb.com/title/tt3138104/&quot; rel=&quot;nofollow&quot; target=&quot;_NEW&quot;&gt;http://www.imdb.com/title/tt3138104/&lt;/a&gt;\n\nGeneral\nComplete name : The Hungover Games 2014 UNRATED HDRip x264 AC3-iMSTiLLPiSSED.mkv\nFormat : Matroska\nFormat version : Version 2\nFile size : 1.21 GiB\nDuration : 1h 25mn\nOverall bit rate mode : Variable\nOverall bit rate : 2 028 Kbps\nEncoded date : UTC 2014-02-02 00:31:31\nWriting application : mkvmerge v6.5.0 ('Isn't she lovely') built on Oct 20 2013 12:50:05\nWriting library : libebml v1.3.0 + libmatroska v1.4.1\n\nVideo\nID : 1\nFormat : AVC\nFormat/Info : Advanced Video Codec\nFormat profile : &lt;a class=&quot;__cf_email__&quot; href=&quot;/cdn-cgi/l/email-protection&quot; data-cfemail=&quot;f2ba9b959ab2bec6dcc3&quot;&gt;[email&amp;#160;protected]&lt;/a&gt;&lt;script cf-hash='f9e31' type=&quot;text/javascript&quot;&gt;\n/* &lt;![CDATA[ */!function(){try{var t=&quot;currentScript&quot;in document?document.currentScript:function(){for(var t=document.getElementsByTagName(&quot;script&quot;),e=t.length;e--;)if(t[e].getAttribute(&quot;cf-hash&quot;))return t[e]}();if(t&amp;&amp;t.previousSibling){var e,r,n,i,c=t.previousSibling,a=c.getAttribute(&quot;data-cfemail&quot;);if(a){for(e=&quot;&quot;,r=parseInt(a.substr(0,2),16),n=2;a.length-n;n+=2)i=parseInt(a.substr(n,2),16)^r,e+=String.fromCharCode(i);e=document.createTextNode(e),c.parentNode.replaceChild(e,c)}}}catch(u){}}();/* ]]&gt; */&lt;/script&gt;\nFormat settings, CABAC : Yes\nFormat settings, ReFrames : 3 frames\nCodec ID : V_MPEG4/ISO/AVC\nDuration : 1h 25mn\nBit rate mode : Variable\nBit rate : 1 603 Kbps\nMaximum bit rate : 40.0 Mbps\nWidth : 704 pixels\nHeight : 400 pixels\nDisplay aspect ratio : 16:9\nFrame rate mode : Constant\nFrame rate : 23.976 fps\nColor space : YUV\nChroma subsampling : 4:2:0\nBit depth : 8 bits\nScan type : Progressive\nBits/(Pixel*Frame) : 0.237\nStream size : 981 MiB (79%)\nWriting library : x264 core 140 r2377 1ca7bb9\n\nAudio\nID : 2\nFormat : AC-3\nFormat/Info : Audio Coding 3\nMode extension : CM (complete main)\nFormat settings, Endianness : Big\nCodec ID : A_AC3\nDuration : 1h 25mn\nBit rate mode : Constant\nBit rate : 384 Kbps\nChannel(s) : 6 channels\nChannel positions : Front: L C R, Side: L R, LFE\nSampling rate : 48.0 KHz\nBit depth : 16 bits\nCompression mode : Lossy\nStream size : 235 MiB (19%)\nLanguage : English\nDefault : Yes\nForced : No\n\n\n\nNice and early on this :) so grab a beer and enjoy","torrent":{"xt":"urn:btih:534c1b7b79f35d12f5667a53b659894a10f0223c","amp;dn":"The+Hungover+Games+2014+UNRATED+HDRip+x264+AC3-iMSTiLLPiSSED","amp;tr":["udp%3A%2F%2Ftracker.openbittorrent.com%3A80","udp%3A%2F%2Fopen.demonii.com%3A1337","udp%3A%2F%2Ftracker.coppersurfer.tk%3A6969","udp%3A%2F%2Fexodus.desync.com%3A6969"],"infoHash":"534c1b7b79f35d12f5667a53b659894a10f0223c","infoHashBuffer":{"type":"Buffer","data":[83,76,27,123,121,243,93,18,245,102,122,83,182,89,137,74,16,240,34,60]},"announce":[],"urlList":[]}}